<mxfile host="app.diagrams.net" agent="Mozilla/5.0 (Windows NT 10.0; Win64; x64) AppleWebKit/537.36 (KHTML, like Gecko) Chrome/130.0.0.0 Safari/537.36" version="24.8.6">
  <diagram name="Pagina-1" id="jz7z72hFbpL-1HT1mjkf">
    <mxGraphModel dx="2222" dy="648" grid="1" gridSize="10" guides="1" tooltips="1" connect="1" arrows="1" fold="1" page="1" pageScale="1" pageWidth="827" pageHeight="1169" math="0" shadow="0">
      <root>
        <mxCell id="0" />
        <mxCell id="1" parent="0" />
        <mxCell id="Yy-rBd1tRsiZ83Zwv24G-1" value="Libro" style="swimlane;childLayout=stackLayout;horizontal=1;startSize=50;horizontalStack=0;rounded=1;fontSize=14;fontStyle=0;strokeWidth=2;resizeParent=0;resizeLast=1;shadow=0;dashed=0;align=center;arcSize=4;whiteSpace=wrap;html=1;" vertex="1" parent="1">
          <mxGeometry x="-240" y="200" width="160" height="120" as="geometry" />
        </mxCell>
        <mxCell id="Yy-rBd1tRsiZ83Zwv24G-2" value="Titolo&lt;div&gt;Autore&lt;/div&gt;&lt;div&gt;ID_L (PK)&lt;/div&gt;" style="align=left;strokeColor=none;fillColor=none;spacingLeft=4;fontSize=12;verticalAlign=top;resizable=0;rotatable=0;part=1;html=1;" vertex="1" parent="Yy-rBd1tRsiZ83Zwv24G-1">
          <mxGeometry y="50" width="160" height="70" as="geometry" />
        </mxCell>
        <mxCell id="Yy-rBd1tRsiZ83Zwv24G-3" value="Biblioteca" style="swimlane;childLayout=stackLayout;horizontal=1;startSize=50;horizontalStack=0;rounded=1;fontSize=14;fontStyle=0;strokeWidth=2;resizeParent=0;resizeLast=1;shadow=0;dashed=0;align=center;arcSize=4;whiteSpace=wrap;html=1;" vertex="1" parent="1">
          <mxGeometry x="120" y="40" width="160" height="120" as="geometry" />
        </mxCell>
        <mxCell id="Yy-rBd1tRsiZ83Zwv24G-4" value="ID_B (PK)&lt;div&gt;Nome&lt;/div&gt;&lt;div&gt;Via&lt;/div&gt;&lt;div&gt;numLibriOspitati&lt;/div&gt;" style="align=left;strokeColor=none;fillColor=none;spacingLeft=4;fontSize=12;verticalAlign=top;resizable=0;rotatable=0;part=1;html=1;" vertex="1" parent="Yy-rBd1tRsiZ83Zwv24G-3">
          <mxGeometry y="50" width="160" height="70" as="geometry" />
        </mxCell>
        <mxCell id="Yy-rBd1tRsiZ83Zwv24G-5" value="Dipendente" style="swimlane;childLayout=stackLayout;horizontal=1;startSize=50;horizontalStack=0;rounded=1;fontSize=14;fontStyle=0;strokeWidth=2;resizeParent=0;resizeLast=1;shadow=0;dashed=0;align=center;arcSize=4;whiteSpace=wrap;html=1;" vertex="1" parent="1">
          <mxGeometry x="560" y="40" width="160" height="120" as="geometry" />
        </mxCell>
        <mxCell id="Yy-rBd1tRsiZ83Zwv24G-6" value="Nome&lt;div&gt;Cognome&lt;/div&gt;&lt;div&gt;CodFisc (PK)&lt;/div&gt;" style="align=left;strokeColor=none;fillColor=none;spacingLeft=4;fontSize=12;verticalAlign=top;resizable=0;rotatable=0;part=1;html=1;" vertex="1" parent="Yy-rBd1tRsiZ83Zwv24G-5">
          <mxGeometry y="50" width="160" height="70" as="geometry" />
        </mxCell>
        <mxCell id="Yy-rBd1tRsiZ83Zwv24G-7" value="Socio" style="swimlane;childLayout=stackLayout;horizontal=1;startSize=50;horizontalStack=0;rounded=1;fontSize=14;fontStyle=0;strokeWidth=2;resizeParent=0;resizeLast=1;shadow=0;dashed=0;align=center;arcSize=4;whiteSpace=wrap;html=1;" vertex="1" parent="1">
          <mxGeometry x="120" y="360" width="160" height="120" as="geometry" />
        </mxCell>
        <mxCell id="Yy-rBd1tRsiZ83Zwv24G-8" value="Nome&lt;div&gt;Cognome&lt;/div&gt;&lt;div&gt;CodFisc (PK)&lt;/div&gt;&lt;div&gt;numLibriPresi&lt;/div&gt;" style="align=left;strokeColor=none;fillColor=none;spacingLeft=4;fontSize=12;verticalAlign=top;resizable=0;rotatable=0;part=1;html=1;" vertex="1" parent="Yy-rBd1tRsiZ83Zwv24G-7">
          <mxGeometry y="50" width="160" height="70" as="geometry" />
        </mxCell>
        <mxCell id="Yy-rBd1tRsiZ83Zwv24G-9" value="" style="endArrow=none;html=1;rounded=0;exitX=1;exitY=0;exitDx=0;exitDy=0;entryX=-0.025;entryY=0.408;entryDx=0;entryDy=0;entryPerimeter=0;" edge="1" parent="1" source="Yy-rBd1tRsiZ83Zwv24G-4" target="Yy-rBd1tRsiZ83Zwv24G-5">
          <mxGeometry relative="1" as="geometry">
            <mxPoint x="320" y="90" as="sourcePoint" />
            <mxPoint x="480" y="90" as="targetPoint" />
          </mxGeometry>
        </mxCell>
        <mxCell id="Yy-rBd1tRsiZ83Zwv24G-10" value="LAVORARE" style="shape=rhombus;perimeter=rhombusPerimeter;whiteSpace=wrap;html=1;align=center;" vertex="1" parent="1">
          <mxGeometry x="360" y="60" width="120" height="60" as="geometry" />
        </mxCell>
        <mxCell id="Yy-rBd1tRsiZ83Zwv24G-11" value="(1, N)" style="text;html=1;align=center;verticalAlign=middle;whiteSpace=wrap;rounded=0;" vertex="1" parent="1">
          <mxGeometry x="270" y="60" width="60" height="30" as="geometry" />
        </mxCell>
        <mxCell id="Yy-rBd1tRsiZ83Zwv24G-12" value="(1, 1)" style="text;html=1;align=center;verticalAlign=middle;whiteSpace=wrap;rounded=0;" vertex="1" parent="1">
          <mxGeometry x="510" y="60" width="60" height="30" as="geometry" />
        </mxCell>
        <mxCell id="Yy-rBd1tRsiZ83Zwv24G-13" value="" style="endArrow=none;html=1;rounded=0;exitX=0.5;exitY=1;exitDx=0;exitDy=0;entryX=0.5;entryY=0;entryDx=0;entryDy=0;" edge="1" parent="1" source="Yy-rBd1tRsiZ83Zwv24G-4" target="Yy-rBd1tRsiZ83Zwv24G-7">
          <mxGeometry relative="1" as="geometry">
            <mxPoint x="160" y="250" as="sourcePoint" />
            <mxPoint x="320" y="250" as="targetPoint" />
          </mxGeometry>
        </mxCell>
        <mxCell id="Yy-rBd1tRsiZ83Zwv24G-14" value="FIDELLIZAZIONE" style="shape=rhombus;perimeter=rhombusPerimeter;whiteSpace=wrap;html=1;align=center;" vertex="1" parent="1">
          <mxGeometry x="140" y="220" width="120" height="60" as="geometry" />
        </mxCell>
        <mxCell id="Yy-rBd1tRsiZ83Zwv24G-15" value="(0, N)" style="text;html=1;align=center;verticalAlign=middle;whiteSpace=wrap;rounded=0;" vertex="1" parent="1">
          <mxGeometry x="200" y="160" width="60" height="30" as="geometry" />
        </mxCell>
        <mxCell id="Yy-rBd1tRsiZ83Zwv24G-16" value="(0, N)" style="text;html=1;align=center;verticalAlign=middle;whiteSpace=wrap;rounded=0;" vertex="1" parent="1">
          <mxGeometry x="200" y="330" width="60" height="30" as="geometry" />
        </mxCell>
        <mxCell id="Yy-rBd1tRsiZ83Zwv24G-18" value="OSPITARE" style="shape=rhombus;perimeter=rhombusPerimeter;whiteSpace=wrap;html=1;align=center;" vertex="1" parent="1">
          <mxGeometry x="-120" y="60" width="120" height="60" as="geometry" />
        </mxCell>
        <mxCell id="Yy-rBd1tRsiZ83Zwv24G-19" value="PRESTITO&lt;div&gt;- dataInizio&lt;/div&gt;&lt;div&gt;- dataFine&lt;/div&gt;" style="shape=rhombus;perimeter=rhombusPerimeter;whiteSpace=wrap;html=1;align=center;" vertex="1" parent="1">
          <mxGeometry x="-90" y="350" width="120" height="110" as="geometry" />
        </mxCell>
        <mxCell id="Yy-rBd1tRsiZ83Zwv24G-20" value="" style="endArrow=none;html=1;rounded=0;entryX=-0.019;entryY=0.408;entryDx=0;entryDy=0;entryPerimeter=0;" edge="1" parent="1" source="Yy-rBd1tRsiZ83Zwv24G-18" target="Yy-rBd1tRsiZ83Zwv24G-3">
          <mxGeometry relative="1" as="geometry">
            <mxPoint x="-60" y="89" as="sourcePoint" />
            <mxPoint x="100" y="89" as="targetPoint" />
          </mxGeometry>
        </mxCell>
        <mxCell id="Yy-rBd1tRsiZ83Zwv24G-21" value="" style="endArrow=none;html=1;rounded=0;exitX=0;exitY=0.5;exitDx=0;exitDy=0;entryX=0.5;entryY=0;entryDx=0;entryDy=0;" edge="1" parent="1" source="Yy-rBd1tRsiZ83Zwv24G-18" target="Yy-rBd1tRsiZ83Zwv24G-1">
          <mxGeometry relative="1" as="geometry">
            <mxPoint x="-270" y="300" as="sourcePoint" />
            <mxPoint x="-110" y="300" as="targetPoint" />
          </mxGeometry>
        </mxCell>
        <mxCell id="Yy-rBd1tRsiZ83Zwv24G-22" value="" style="endArrow=none;html=1;rounded=0;exitX=0.5;exitY=1;exitDx=0;exitDy=0;entryX=0;entryY=0.5;entryDx=0;entryDy=0;" edge="1" parent="1" source="Yy-rBd1tRsiZ83Zwv24G-2" target="Yy-rBd1tRsiZ83Zwv24G-19">
          <mxGeometry relative="1" as="geometry">
            <mxPoint x="-270" y="300" as="sourcePoint" />
            <mxPoint x="-110" y="300" as="targetPoint" />
          </mxGeometry>
        </mxCell>
        <mxCell id="Yy-rBd1tRsiZ83Zwv24G-23" value="" style="endArrow=none;html=1;rounded=0;exitX=1;exitY=0.5;exitDx=0;exitDy=0;entryX=-0.025;entryY=0.417;entryDx=0;entryDy=0;entryPerimeter=0;" edge="1" parent="1" source="Yy-rBd1tRsiZ83Zwv24G-19" target="Yy-rBd1tRsiZ83Zwv24G-7">
          <mxGeometry relative="1" as="geometry">
            <mxPoint x="-30" y="510" as="sourcePoint" />
            <mxPoint x="130" y="510" as="targetPoint" />
          </mxGeometry>
        </mxCell>
        <mxCell id="Yy-rBd1tRsiZ83Zwv24G-24" value="(1, N)" style="text;html=1;align=center;verticalAlign=middle;whiteSpace=wrap;rounded=0;" vertex="1" parent="1">
          <mxGeometry x="60" y="60" width="60" height="30" as="geometry" />
        </mxCell>
        <mxCell id="Yy-rBd1tRsiZ83Zwv24G-25" value="(1, 1)" style="text;html=1;align=center;verticalAlign=middle;whiteSpace=wrap;rounded=0;" vertex="1" parent="1">
          <mxGeometry x="-160" y="170" width="60" height="30" as="geometry" />
        </mxCell>
        <mxCell id="Yy-rBd1tRsiZ83Zwv24G-26" value="(1, N)" style="text;html=1;align=center;verticalAlign=middle;whiteSpace=wrap;rounded=0;" vertex="1" parent="1">
          <mxGeometry x="60" y="380" width="60" height="30" as="geometry" />
        </mxCell>
        <mxCell id="Yy-rBd1tRsiZ83Zwv24G-27" value="(0, N)" style="text;html=1;align=center;verticalAlign=middle;whiteSpace=wrap;rounded=0;" vertex="1" parent="1">
          <mxGeometry x="-160" y="320" width="60" height="30" as="geometry" />
        </mxCell>
        <mxCell id="Yy-rBd1tRsiZ83Zwv24G-28" value="&lt;h1 style=&quot;margin-top: 0px;&quot;&gt;TRADUZIONE IN SCHEMA LOGICO&lt;/h1&gt;&lt;p&gt;Libri (Titolo, Autore, ID_L (PK), Biblioteca (FK))&lt;/p&gt;&lt;p&gt;Biblioteche (ID_B, Nome, Via, numLibriOspitati)&lt;/p&gt;&lt;p&gt;Dipendente (Nome, Cognome, CodFisc (PK), Biblioteca (FK))&lt;/p&gt;&lt;p&gt;Prestiti (ID_P (PK). Libro (FK), Socio (FK))&lt;/p&gt;&lt;p&gt;Fidelizzazioni (ID_F (PK), Biblioteca (FK), Socio (FK))&lt;/p&gt;&lt;p&gt;&lt;br&gt;&lt;/p&gt;&lt;p&gt;&lt;br&gt;&lt;/p&gt;&lt;p&gt;&lt;br&gt;&lt;/p&gt;" style="text;html=1;whiteSpace=wrap;overflow=hidden;rounded=0;" vertex="1" parent="1">
          <mxGeometry x="320" y="200" width="410" height="280" as="geometry" />
        </mxCell>
      </root>
    </mxGraphModel>
  </diagram>
</mxfile>
